<svg width="20" height="17" viewBox="0 0 20 17" fill="none" xmlns="http://www.w3.org/2000/svg">
<mask id="mask0_403_335" style="mask-type:alpha" maskUnits="userSpaceOnUse" x="0" y="0" width="20" height="17">
<rect width="20" height="17" fill="#D9D9D9"/>
</mask>
<g mask="url(#mask0_403_335)">
<path d="M15.8762 9.09927V8.09927H19.107V9.09927H15.8762ZM16.9609 15.5608L14.3762 13.6223L14.9993 12.83L17.5839 14.7685L16.9609 15.5608ZM14.9224 4.29157L14.2993 3.49927L16.8839 1.56079L17.507 2.35312L14.9224 4.29157ZM3.45317 14.5608V10.7531H2.41469C1.96726 10.7531 1.58617 10.5957 1.27144 10.281C0.956691 9.96626 0.799316 9.58517 0.799316 9.13774V8.06079C0.799316 7.61336 0.956691 7.23227 1.27144 6.91754C1.58617 6.60279 1.96726 6.44542 2.41469 6.44542H6.14547L10.107 4.09927V13.0993L6.14547 10.7531H4.45317V14.5608H3.45317ZM9.10702 11.3185V5.88004L6.42624 7.44542H2.41469C2.26086 7.44542 2.11983 7.50952 1.99162 7.63772C1.86342 7.76593 1.79932 7.90696 1.79932 8.06079V9.13774C1.79932 9.29157 1.86342 9.4326 1.99162 9.56082C2.11983 9.68902 2.26086 9.75312 2.41469 9.75312H6.42624L9.10702 11.3185ZM11.8762 11.4877V5.71079C12.2109 6.02106 12.4804 6.42843 12.6849 6.93292C12.8894 7.4374 12.9916 7.99285 12.9916 8.59927C12.9916 9.20568 12.8894 9.76113 12.6849 10.2656C12.4804 10.7701 12.2109 11.1775 11.8762 11.4877Z" fill="white"/>
</g>
</svg>
